<?xml version="1.0" encoding="utf-8"?>
<!-- Generator: Adobe Illustrator 16.0.0, SVG Export Plug-In . SVG Version: 6.00 Build 0)  -->
<!DOCTYPE svg PUBLIC "-//W3C//DTD SVG 1.1//EN" "http://www.w3.org/Graphics/SVG/1.1/DTD/svg11.dtd">
<svg version="1.1" id="Layer_1" xmlns="http://www.w3.org/2000/svg" xmlns:xlink="http://www.w3.org/1999/xlink" x="0px" y="0px"
	 width="300px" height="100px" viewBox="0 0 300 100" enable-background="new 0 0 300 100" xml:space="preserve">
<g>
	<g>
		<path fill="#1792C4" d="M54.046,31.998l10.066,6.472V8.199c0-2.542-2.062-4.604-4.604-4.604H38.569
			c-2.374,0-4.298,1.924-4.298,4.297V38.47l29.841,17.978L83.527,46.02v27.575l5.688-3.048c2.696-1.445,4.379-4.255,4.379-7.312
			V31.932c0-1.249-1.353-2.029-2.435-1.405l-26.8,14.774L42.541,32.358V12.583h11.505V31.998z"/>
		<path fill="#1792C4" d="M7.721,30.284l56.391,33.353v28.405c0,2.41-1.953,4.363-4.361,4.363H39.175
			c-2.708,0-4.902-2.195-4.902-4.904V74.422l8.269,3.955v8.268h11.505V68.67L14.857,46.379v27.215l-4.91-2.548
			c-2.948-1.527-4.798-4.571-4.798-7.89V31.75C5.149,30.43,6.585,29.614,7.721,30.284"/>
		<path fill="#32BAE8" d="M47.268,25.396H44.51v-7.589h7.589v2.756C52.099,23.233,49.935,25.396,47.268,25.396"/>
		<path fill="#32BAE8" d="M34.271,62.583l0.359,8.245l7.911,3.595v-3.844c0-2.066-1.116-3.973-2.918-4.984L34.271,62.583z"/>
		<g>
			<defs>
				<path id="SVGID_1_" d="M38.569,3.595c-2.374,0-4.298,1.925-4.298,4.298V38.47l8.27-6.112V12.584h11.505v19.414l10.066,6.472
					V8.199c0-2.542-2.062-4.604-4.604-4.604H38.569z"/>
			</defs>
			<clipPath id="SVGID_2_">
				<use xlink:href="#SVGID_1_"  overflow="visible"/>
			</clipPath>
			
				<linearGradient id="SVGID_3_" gradientUnits="userSpaceOnUse" x1="-197.627" y1="395.5967" x2="-196.7578" y2="395.5967" gradientTransform="matrix(0 -40.1416 -40.1416 0 15929.1172 -7894.5825)">
				<stop  offset="0" style="stop-color:#0098C9"/>
				<stop  offset="1" style="stop-color:#32BAE8"/>
			</linearGradient>
			<rect x="34.271" y="3.595" clip-path="url(#SVGID_2_)" fill="url(#SVGID_3_)" width="29.841" height="34.875"/>
		</g>
		<g>
			<defs>
				<path id="SVGID_4_" d="M34.271,91.501c0,2.709,2.195,4.904,4.903,4.904h3.366V78.377l-8.27-3.956V91.501z"/>
			</defs>
			<clipPath id="SVGID_5_">
				<use xlink:href="#SVGID_4_"  overflow="visible"/>
			</clipPath>
			
				<linearGradient id="SVGID_6_" gradientUnits="userSpaceOnUse" x1="-197.3491" y1="400.585" x2="-196.4805" y2="400.585" gradientTransform="matrix(0 -25.3022 -25.3022 0 10174.0957 -4896.9619)">
				<stop  offset="0" style="stop-color:#1792C4"/>
				<stop  offset="1" style="stop-color:#32BAE8"/>
			</linearGradient>
			<rect x="34.271" y="74.421" clip-path="url(#SVGID_5_)" fill="url(#SVGID_6_)" width="8.27" height="21.984"/>
		</g>
		<g>
			<defs>
				<path id="SVGID_7_" d="M5.15,31.75v31.406c0,3.32,1.849,6.363,4.797,7.891l4.91,2.548V46.379l19.695,11.203l-0.281-11.595
					L7.722,30.284c-0.278-0.165-0.575-0.241-0.864-0.241C5.968,30.044,5.15,30.754,5.15,31.75"/>
			</defs>
			<clipPath id="SVGID_8_">
				<use xlink:href="#SVGID_7_"  overflow="visible"/>
			</clipPath>
			
				<linearGradient id="SVGID_9_" gradientUnits="userSpaceOnUse" x1="-207.4834" y1="386.8936" x2="-206.6143" y2="386.8936" gradientTransform="matrix(33.8428 0 0 -33.8428 7026.9717 13145.373)">
				<stop  offset="0" style="stop-color:#006FB6"/>
				<stop  offset="1" style="stop-color:#32BAE8"/>
			</linearGradient>
			<rect x="5.15" y="30.043" clip-path="url(#SVGID_8_)" fill="url(#SVGID_9_)" width="29.402" height="43.552"/>
		</g>
		<g>
			<defs>
				<path id="SVGID_10_" d="M91.159,30.527L64.36,45.302l-0.248,11.146L83.526,46.02v27.575l5.689-3.048
					c2.695-1.444,4.378-4.255,4.378-7.312V31.932c0-0.947-0.777-1.624-1.625-1.624C91.697,30.308,91.421,30.376,91.159,30.527"/>
			</defs>
			<clipPath id="SVGID_11_">
				<use xlink:href="#SVGID_10_"  overflow="visible"/>
			</clipPath>
			
				<linearGradient id="SVGID_12_" gradientUnits="userSpaceOnUse" x1="-187.1289" y1="387.1123" x2="-186.2603" y2="387.1123" gradientTransform="matrix(-33.9336 0 0 33.9336 -6256.3726 -13084.1611)">
				<stop  offset="0" style="stop-color:#006FB6"/>
				<stop  offset="1" style="stop-color:#32BAE8"/>
			</linearGradient>
			<rect x="64.112" y="30.308" clip-path="url(#SVGID_11_)" fill="url(#SVGID_12_)" width="29.481" height="43.287"/>
		</g>
	</g>
	<g>
		<path fill="#3C3C3B" d="M104.653,80.186v-1.204h7.634v1.204l-3.537,0.383h-0.635L104.653,80.186z M108.75,94.385l3.537,0.385
			v1.204h-7.634V94.77l3.462-0.385H108.75z M106.834,86.922c0-2.639,0-5.302-0.078-7.941h3.476
			c-0.078,2.587-0.078,5.251-0.078,7.941v0.776c0,2.972,0,5.637,0.078,8.275h-3.476c0.078-2.588,0.078-5.251,0.078-7.938V86.922z
			 M108.494,86.588h10.25v1.34h-10.25V86.588z M114.951,80.186v-1.204h7.633v1.204l-3.509,0.383h-0.615L114.951,80.186z
			 M119.075,94.385l3.509,0.385v1.204h-7.633V94.77l3.509-0.385H119.075z M117.084,86.922c0-2.639,0-5.302-0.076-7.941h3.474
			c-0.076,2.587-0.076,5.251-0.076,7.941v1.113c0,2.635,0,5.3,0.076,7.938h-3.474c0.076-2.588,0.076-5.251,0.076-8.275V86.922z"/>
		<path fill="#3C3C3B" d="M127.147,80.186v-1.204h3.858v1.587h-0.33L127.147,80.186z M131.006,94.385v1.589h-3.858V94.77
			l3.528-0.385H131.006z M129.348,86.922c0-2.638,0-5.301-0.078-7.941h3.475c-0.077,2.587-0.077,5.251-0.077,7.941v0.907
			c0,2.841,0,5.506,0.077,8.144h-3.475c0.078-2.589,0.078-5.251,0.078-7.94V86.922z M137.671,78.981l1.509,1.364h-8.174v-1.364
			h9.051l0.181,4.485h-1.793L137.671,78.981z M136.723,87.926h-5.717v-1.349h5.717V87.926z M140.749,91.487l-0.178,4.486h-9.565
			v-1.355h8.686l-1.51,1.355l0.775-4.486H140.749z M135.92,86.927l0.385-2.584h1.321v5.79h-1.321l-0.385-2.71V86.927z"/>
		<path fill="#3C3C3B" d="M144.239,94.771l2.599-0.384h0.485l2.619,0.384v1.202h-5.703V94.771z M151.693,78.899h2.102l5.826,17.073
			h-3.398l-4.755-14.534l0.779-0.658l-5.059,15.192h-1.362L151.693,78.899z M148.819,89.395h6.916l0.494,1.336h-7.83L148.819,89.395
			z M153.488,94.8l3.059-0.387h1.124l3.232,0.387v1.173h-7.415V94.8z"/>
		<path fill="#3C3C3B" d="M164.76,80.185v-1.203h7.82v1.203l-3.565,0.382h-0.729L164.76,80.185z M168.616,94.387v1.587h-3.856V94.77
			l3.526-0.383H168.616z M166.88,78.981h3.474c-0.076,2.618-0.076,5.283-0.076,7.94v1.567c0,2.214,0,4.878,0.076,7.484h-3.474
			c0.076-2.619,0.076-5.282,0.076-7.667v-1.385C166.956,84.251,166.956,81.588,166.88,78.981 M178.018,91.053l-0.255,4.921h-9.146
			V94.6h8.268l-1.682,1.374l1.017-4.921H178.018z"/>
		<path fill="#3C3C3B" d="M182.957,80.345l1.509-1.364l-0.744,4.662h-1.792l0.149-4.662H196.6l0.14,4.662h-1.783l-0.745-4.662
			l1.501,1.364H182.957z M189.731,94.385l3.728,0.385v1.204h-8.239V94.77l3.69-0.385H189.731z M187.674,86.922
			c0-2.639,0-5.302-0.077-7.941h3.475c-0.076,2.587-0.076,5.251-0.076,7.941v1.101c0,2.647,0,5.313,0.076,7.95h-3.475
			c0.077-2.588,0.077-5.251,0.077-7.938V86.922z"/>
		<path fill="#3C3C3B" d="M200.805,80.186v-1.204h7.634v1.204l-3.538,0.383h-0.634L200.805,80.186z M204.9,94.385l3.538,0.385v1.204
			h-7.634V94.77l3.462-0.385H204.9z M202.985,86.922c0-2.639,0-5.302-0.078-7.941h3.476c-0.078,2.587-0.078,5.251-0.078,7.941v0.776
			c0,2.972,0,5.637,0.078,8.275h-3.476c0.078-2.588,0.078-5.251,0.078-7.938V86.922z M204.646,86.588h10.249v1.34h-10.249V86.588z
			 M211.102,80.186v-1.204h7.633v1.204l-3.507,0.383h-0.616L211.102,80.186z M215.228,94.385l3.507,0.385v1.204h-7.633V94.77
			l3.51-0.385H215.228z M213.234,86.922c0-2.639,0-5.302-0.078-7.941h3.477c-0.077,2.587-0.077,5.251-0.077,7.941v1.113
			c0,2.635,0,5.3,0.077,7.938h-3.477c0.078-2.588,0.078-5.251,0.078-8.275V86.922z"/>
		<path fill="#3C3C3B" d="M236.648,93.484v1.361l-1.654,0.368l0.755-3.902h1.759l-0.102,3.826c-1.492,0.815-3.277,1.268-5.277,1.268
			c-5.051,0-8.782-3.315-8.782-8.927c0-5.604,3.957-8.93,8.858-8.93c1.666,0,3.354,0.333,4.983,1.251l0.103,3.844h-1.762
			l-0.761-3.924l1.652,0.379v1.487c-1.337-1.225-2.563-1.671-3.757-1.671c-3.09,0-5.688,2.455-5.688,7.572
			c0,5.11,2.41,7.544,5.535,7.544C233.879,95.03,235.32,94.547,236.648,93.484"/>
		<path fill="#3C3C3B" d="M241.108,94.771l2.598-0.384h0.486l2.619,0.384v1.202h-5.703V94.771z M248.562,78.899h2.101l5.829,17.073
			h-3.4l-4.754-14.534l0.778-0.658l-5.057,15.192h-1.363L248.562,78.899z M245.689,89.395h6.914l0.496,1.336h-7.831L245.689,89.395z
			 M250.357,94.8l3.06-0.387h1.124l3.229,0.387v1.173h-7.413V94.8z"/>
		<path fill="#3C3C3B" d="M261.627,80.184V78.98h3.857v1.586h-0.329L261.627,80.184z M265.817,94.386l3.527,0.384v1.203h-7.718
			V94.77l3.528-0.384H265.817z M263.826,86.921c0-2.636,0-5.301-0.078-7.94h3.438c-0.075,2.637-0.075,5.201-0.075,8.102v0.78
			c0,2.808,0,5.474,0.075,8.11h-3.438c0.078-2.588,0.078-5.251,0.078-7.939V86.921z M265.503,86.843h3.11
			c2.653,0,3.703-1.486,3.703-3.346c0-2.105-1.134-3.187-3.509-3.187h-3.323v-1.33h3.868c3.975,0,6.243,1.625,6.243,4.376
			c0,2.066-1.585,4.058-5.543,4.319l0.05-0.231c2.963,0.15,4.033,1.24,4.602,3.769l0.964,4.103l-1.462-0.908l3.251,0.362v1.203
			c-0.848,0.22-1.358,0.313-2.334,0.313c-1.891,0-2.881-0.523-3.159-2.114l-0.758-3.562c-0.382-1.899-1.172-2.475-2.994-2.475
			h-2.709V86.843z"/>
		<path fill="#3C3C3B" d="M281.251,80.186v-1.204h3.857v1.587h-0.332L281.251,80.186z M285.108,94.385v1.589h-3.857V94.77
			l3.525-0.385H285.108z M283.449,86.922c0-2.638,0-5.301-0.077-7.941h3.475c-0.078,2.587-0.078,5.251-0.078,7.941v0.907
			c0,2.841,0,5.506,0.078,8.144h-3.475c0.077-2.589,0.077-5.251,0.077-7.94V86.922z M291.772,78.981l1.509,1.364h-8.173v-1.364
			h9.053l0.179,4.485h-1.794L291.772,78.981z M290.824,87.926h-5.716v-1.349h5.716V87.926z M294.85,91.487l-0.178,4.486h-9.563
			v-1.355h8.687l-1.513,1.355l0.776-4.486H294.85z M290.022,86.927l0.384-2.584h1.322v5.79h-1.322l-0.384-2.71V86.927z"/>
		<polygon fill="#3C3C3B" points="113.214,67.348 104.653,67.348 131.715,3.596 140.855,3.596 168.051,67.348 158.91,67.348 
			150.663,47.286 129.575,47.286 131.849,40.598 147.899,40.598 135.995,11.709 		"/>
		<path fill="#3C3C3B" d="M178.144,11.396h-8.249V3.595h8.249V11.396z M178.144,67.347h-8.249V20.534h8.249V67.347z"/>
		<path fill="#3C3C3B" d="M185.562,67.348V20.536h5.573l1.382,5.886c4.486-3.924,9.377-5.886,14.668-5.886
			c6.777,0,11.397,2.14,13.865,6.42c5.081-4.28,10.237-6.42,15.469-6.42c10.76,0,16.141,5.931,16.141,17.789v29.023h-8.248V37.879
			c0-6.983-2.942-10.477-8.827-10.477c-4.4,0-8.517,2.021-12.351,6.063v33.882h-8.247V38.013c0-7.073-2.913-10.611-8.739-10.611
			c-4.636,0-8.782,2.021-12.438,6.063v33.882H185.562z"/>
		<path fill="#3C3C3B" d="M258.739,65.119v-7.134c5.498,1.784,11.058,2.676,16.674,2.676c7.459,0,11.188-2.229,11.188-6.688
			c0-4.16-2.601-6.241-7.8-6.241h-6.688c-10.105,0-15.157-4.608-15.157-13.822c0-8.916,6.492-13.375,19.482-13.375
			c5.586,0,11.128,0.744,16.628,2.23v7.134c-5.5-1.784-11.042-2.675-16.628-2.675c-7.789,0-11.682,2.229-11.682,6.686
			c0,4.163,2.452,6.242,7.356,6.242h6.688c10.698,0,16.049,4.608,16.049,13.821c0,8.917-6.48,13.375-19.438,13.375
			C269.797,67.348,264.237,66.605,258.739,65.119"/>
	</g>
</g>
</svg>
