<?xml version="1.0" standalone="no"?>
<!DOCTYPE svg PUBLIC "-//W3C//DTD SVG 20010904//EN"
 "http://www.w3.org/TR/2001/REC-SVG-20010904/DTD/svg10.dtd">
<svg version="1.0" xmlns="http://www.w3.org/2000/svg"
 width="223.000000pt" height="54.000000pt" viewBox="0 0 223.000000 54.000000"
 preserveAspectRatio="xMidYMid meet">

<g transform="translate(0.000000,54.000000) scale(0.100000,-0.100000)"
fill="#000000" stroke="none">
<path d="M1163 358 c-57 -15 -81 -78 -47 -126 8 -12 34 -32 57 -43 57 -29 77
-48 77 -74 0 -70 -102 -57 -134 18 l-14 32 -1 -50 -1 -50 75 -3 c69 -3 76 -1
100 22 14 14 26 33 26 43 4 61 -12 83 -93 124 -45 23 -58 34 -58 52 0 30 18
47 50 47 26 0 56 -25 78 -65 10 -17 11 -11 12 34 0 42 -3 51 -13 43 -8 -7 -26
-8 -47 -3 -19 4 -49 4 -67 -1z"/>
<path d="M515 346 c11 -7 47 -77 80 -155 32 -77 62 -138 66 -133 4 4 28 61 54
127 25 66 55 132 66 148 l20 27 -48 -1 c-39 0 -44 -2 -25 -9 12 -5 22 -14 22
-20 0 -25 -63 -171 -70 -163 -8 8 -70 158 -70 169 0 2 10 9 23 14 16 6 0 9
-58 9 -70 1 -77 -1 -60 -13z"/>
<path d="M855 234 c-27 -70 -58 -137 -68 -150 l-18 -24 42 0 c38 0 41 1 25 13
-15 11 -17 19 -9 43 9 26 14 29 59 32 46 3 51 1 62 -23 17 -36 15 -44 -10 -55
-17 -6 -1 -9 56 -9 66 -1 77 1 63 12 -10 6 -44 73 -76 147 -32 74 -62 135 -67
137 -5 2 -31 -54 -59 -123z m49 3 c32 -77 31 -77 -13 -77 -23 0 -41 3 -41 8 0
10 33 102 37 102 1 0 9 -15 17 -33z"/>
<path d="M1340 313 l0 -48 18 34 c16 32 62 58 76 43 3 -3 6 -58 6 -122 0 -117
-6 -141 -40 -153 -8 -3 23 -5 70 -5 47 0 78 2 70 5 -34 12 -40 36 -40 153 0
64 3 119 6 122 14 15 60 -11 76 -43 l17 -34 1 48 0 47 -130 0 -130 0 0 -47z"/>
<path d="M1994 344 c13 -12 16 -40 16 -139 0 -108 -2 -125 -17 -134 -14 -8 -4
-10 42 -11 46 0 56 3 47 12 -7 7 -12 40 -12 79 0 70 14 97 45 85 19 -7 22
-145 3 -164 -9 -9 0 -12 42 -12 42 0 51 3 42 12 -7 7 -12 39 -12 74 0 35 -4
74 -10 88 -12 33 -52 43 -85 22 l-25 -16 0 60 0 60 -46 0 c-41 0 -44 -1 -30
-16z"/>
<path d="M1644 256 c-86 -38 -57 -196 36 -196 37 0 80 23 80 43 0 8 -3 8 -12
-1 -16 -16 -63 -15 -75 1 -6 6 -13 24 -17 40 -6 27 -6 27 49 27 51 0 55 2 55
24 0 54 -60 87 -116 62z m66 -47 c0 -26 -4 -29 -30 -29 -25 0 -30 4 -30 24 0
14 7 32 16 41 22 21 44 3 44 -36z"/>
<path d="M1824 236 c-68 -68 -33 -175 57 -176 23 0 46 8 60 20 l24 20 -28 -10
c-53 -19 -87 20 -87 99 0 44 28 79 48 59 7 -7 12 -20 12 -29 0 -21 24 -31 39
-16 17 17 13 34 -11 51 -37 26 -76 20 -114 -18z"/>
</g>
</svg>
